<?xml version="1.0" encoding="utf-8"?>
<!DOCTYPE svg PUBLIC "-//W3C//DTD SVG 1.1//EN" "http://www.w3.org/Graphics/SVG/1.1/DTD/svg11.dtd">
<svg version="1.1" id="Layer_1" xmlns="http://www.w3.org/2000/svg" xmlns:xlink="http://www.w3.org/1999/xlink" x="0px" y="0px"
	 width="612px" height="792px" viewBox="0 0 612 792" enable-background="new 0 0 612 792" xml:space="preserve">
<path fill="none" stroke="white" stroke-width="5" stroke-linejoin="round" d="M118.823,85.188l-3.957-10.433
	c0,0,53.102,136.405,56.082,143.856c2.981,7.452,5.17,7.173,9.221,8.151c4.052,0.978,8.756,1.676,13.041,1.956
	c4.284,0.279,4.751-0.466,7.917-3.261c3.167-2.794,5.961-4.75,13.32-5.588c7.358-0.839,13.32,1.304,9.873,8.011
	c-3.446,6.706-3.679,9.593-3.399,14.483c0.279,4.89,0.626,11.594,0.838,16.208c0.233,5.076-0.606,11.69,9.641,11.037
	c10.245-0.651,21.237-2.515,32.135,3.354c10.898,5.868,14.811,5.402,21.889,3.912c7.079-1.49,11.084-2.655,18.629-3.912
	c7.545-1.258,25.848-1.817,22.355,17.744c-3.493,19.56,0.01,20.673,1.536,23.193c2.004,3.307,4.892,7.685,7.033,10.572
	c2.143,2.888,1.724,8.989,5.495,10.526c3.773,1.536,7.219,3.446,11.271,5.402s4.417,5.742,1.863,15.09
	c-2.748,10.059-4.378,15.369-5.775,20.119c-0.812,2.76-2.98,9.02-2.84,15.276c0.161,7.269-4.216,11.72-7.033,18.257
	c-4.657,10.804-9.688,33.532-10.806,40.425c-0.588,3.627-3.167,10.059-1.117,24.59s2.981,26.454,3.913,34.278
	c0.931,7.824,3.353,16.021,5.774,21.796c2.421,5.775,2.98,11.922,2.98,23.473s0.932,21.982,1.117,30.553
	c0.187,8.568-0.186,17.138,7.266,25.335c7.452,8.196,4.285,9.128,2.98,17.324c-1.304,8.197-2.561,10.433-5.075,12.528
	c-2.516,2.095-3.493,4.61-0.141,9.501c3.354,4.89,1.537,8.104-2.096,9.78c-3.633,1.676-6.521,2.979-16.16-0.513
	c-9.641-3.493-29.062-11.363-29.062-11.363"/>
</svg>
