<svg class="map" xmlns="http://www.w3.org/2000/svg">
	<path class="route-path" d="M8.957 15.433l-3.957-10.433s53.102 136.405 56.082 143.856c2.981 7.452 5.17 7.173 9.221 8.151 4.052.978 8.756 1.676 13.041 1.956 4.284.279 4.751-.466 7.917-3.261 3.167-2.794 5.961-4.75 13.32-5.588 7.358-.839 13.32 1.304 9.873 8.011-3.446 6.706-3.679 9.593-3.399 14.483.279 4.89.626 11.594.838 16.208.233 5.076-.606 11.69 9.641 11.037 10.245-.651 21.237-2.515 32.135 3.354 10.898 5.868 14.811 5.402 21.889 3.912 7.079-1.49 11.084-2.655 18.629-3.912 7.545-1.258 25.848-1.817 22.355 17.744-3.493 19.56.01 20.672 1.536 23.193 2.004 3.308 4.892 7.685 7.033 10.572 2.143 2.888 1.724 8.989 5.495 10.526 3.773 1.535 7.219 3.445 11.271 5.401s4.417 5.742 1.863 15.09c-2.748 10.06-4.378 15.369-5.775 20.119-.812 2.761-2.98 9.021-2.84 15.276.161 7.269-4.216 11.72-7.033 18.257-4.657 10.804-9.688 33.532-10.806 40.425-.588 3.627-3.167 10.059-1.117 24.59s2.981 26.454 3.913 34.278c.931 7.824 3.353 16.021 5.774 21.796 2.421 5.775 2.98 11.922 2.98 23.473s.932 21.982 1.117 30.553c.187 8.568-.186 17.138 7.266 25.335 7.452 8.196 4.285 9.128 2.98 17.324-1.304 8.197-2.561 10.433-5.075 12.528-2.516 2.095-3.493 4.61-.141 9.501 3.354 4.89 1.537 8.104-2.096 9.78-3.633 1.676-6.521 2.979-16.16-.513-9.641-3.493-29.062-11.363-29.062-11.363"/>
</svg>